<svg xmlns="http://www.w3.org/2000/svg" width="50" height="47" viewBox="0 0 50 47" fill="none"><path d="M8.71274 29.2849C8.71274 31.5644 6.76172 33.4133 4.35637 33.4133C1.95101 33.4133 1.09572e-05 31.5644 1.09572e-05 29.2849V5.11676C-0.00533427 2.83723 1.94566 0.988281 4.35102 0.988281C6.75637 0.988281 8.70739 2.83723 8.70739 5.11676V29.2849H8.71274Z" fill="#312782"></path><path d="M17.7557 19.0558C15.3664 19.0558 13.4207 20.8997 13.4207 23.1641V29.0756C13.4207 33.7512 9.65769 37.6112 4.85768 37.8594C4.70266 37.8696 4.55299 37.8696 4.39798 37.8696C2.00866 37.8696 0.0683594 39.7084 0.0683594 41.9778C0.0683594 44.2472 2.00332 46.0809 4.39798 46.086C4.90577 46.086 5.42427 46.0657 5.93207 46.0202C14.9869 45.2603 22.0747 37.7835 22.0747 28.9997V23.159C22.0747 20.8947 20.129 19.0508 17.7397 19.0508L17.7557 19.0558Z" fill="#312782"></path><path d="M44.1891 8.53051H40.5971C38.8813 8.53051 37.4861 7.20838 37.4861 5.58232L37.4968 5.76974H37.4861V5.58232V4.12848C37.4861 1.84895 35.5352 0 33.1298 0C30.7245 0 28.7734 1.84895 28.7734 4.12848V6.47893C28.7734 6.48906 28.7734 6.50426 28.7734 6.51439V6.62077C28.8536 12.2031 33.6109 16.7115 39.5013 16.7824H44.1837C46.5891 16.7824 48.5401 14.9335 48.5401 12.6539C48.5401 10.3744 46.5891 8.52544 44.1837 8.52544L44.1891 8.53051Z" fill="url(#paint0_linear_3854_22896)"></path><path d="M41.2864 23.1909C41.2864 20.9114 43.2373 19.0624 45.6427 19.0624C48.048 19.0624 49.9991 20.9114 49.9991 23.1909V26.9243C49.9991 29.9383 48.7002 32.6738 46.6102 34.6595C44.5202 36.6401 41.6284 37.8711 38.4534 37.8711C35.2783 37.8711 32.3866 36.6401 30.2912 34.6595C28.2012 32.6788 26.9023 29.9383 26.9023 26.9243V5.11676C26.9023 2.83723 28.8534 0.988281 31.2587 0.988281C33.6641 0.988281 35.6151 2.83723 35.6151 5.11676V26.9243C35.6151 27.6588 35.9358 28.3325 36.4543 28.8188C36.9727 29.3102 37.6783 29.6141 38.4534 29.6141C39.2284 29.6141 39.9393 29.3102 40.4525 28.8188C40.971 28.3274 41.2917 27.6588 41.2917 26.9243V23.1909H41.2864Z" fill="url(#paint1_linear_3854_22896)"></path><mask id="mask0_3854_22896" style="mask-type:luminance" maskUnits="userSpaceOnUse" x="26" y="0" width="24" height="38"><path d="M41.2864 23.1909C41.2864 20.9114 43.2373 19.0624 45.6427 19.0624C48.048 19.0624 49.9991 20.9114 49.9991 23.1909V26.9243C49.9991 29.9383 48.7002 32.6737 46.6102 34.6595C44.5202 36.6401 41.6284 37.8711 38.4534 37.8711C35.2783 37.8711 32.3866 36.6401 30.2912 34.6595C28.2012 32.6788 26.9023 29.9383 26.9023 26.9243V5.11676C26.9023 2.83723 28.8534 0.988281 31.2587 0.988281C33.6641 0.988281 35.6151 2.83723 35.6151 5.11676V26.9243C35.6151 27.6588 35.9358 28.3325 36.4543 28.8188C36.9727 29.3102 37.6783 29.6141 38.4534 29.6141C39.2284 29.6141 39.9393 29.3102 40.4525 28.8188C40.971 28.3274 41.2917 27.6588 41.2917 26.9243V23.1909H41.2864Z" fill="white"></path></mask><g mask="url(#mask0_3854_22896)"><path d="M44.1891 8.53051H40.5971C38.8813 8.53051 37.4861 7.20838 37.4861 5.58232L37.4968 5.76974H37.4861V5.58232V4.12848C37.4861 1.84895 35.5352 0 33.1298 0C30.7245 0 28.7734 1.84895 28.7734 4.12848V6.47893C28.7734 6.48906 28.7734 6.50426 28.7734 6.51439V6.62077C28.8536 12.2031 33.6109 16.7115 39.5013 16.7824H44.1837C46.5891 16.7824 48.5401 14.9335 48.5401 12.6539C48.5401 10.3744 46.5891 8.52544 44.1837 8.52544L44.1891 8.53051Z" fill="url(#paint2_linear_3854_22896)"></path></g><defs><linearGradient id="paint0_linear_3854_22896" x1="51.047" y1="14.8575" x2="30.888" y2="5.40094" gradientUnits="userSpaceOnUse"><stop offset="0.13" stop-color="#312782"></stop><stop offset="0.71" stop-color="#E5007E"></stop></linearGradient><linearGradient id="paint1_linear_3854_22896" x1="42.8418" y1="37.8204" x2="31.1091" y2="1.55999" gradientUnits="userSpaceOnUse"><stop offset="0.23" stop-color="#312782"></stop><stop offset="0.81" stop-color="#E5007E"></stop></linearGradient><linearGradient id="paint2_linear_3854_22896" x1="25.7748" y1="14.5839" x2="40.0105" y2="6.97121" gradientUnits="userSpaceOnUse"><stop stop-color="#312782"></stop><stop offset="0.29" stop-color="#761780"></stop><stop offset="0.53" stop-color="#AA0C7F"></stop><stop offset="0.64" stop-color="#BE087F"></stop></linearGradient></defs></svg>